<?xml version="1.0" encoding="UTF-8" standalone="no"?>
<!DOCTYPE svg PUBLIC "-//W3C//DTD SVG 1.1//EN" "http://www.w3.org/Graphics/SVG/1.1/DTD/svg11.dtd">
<!-- Generado por Microsoft Visio, SVG Export EDR-Resultados.svg Page-1 -->
<svg xmlns="http://www.w3.org/2000/svg" xmlns:xlink="http://www.w3.org/1999/xlink" xmlns:ev="http://www.w3.org/2001/xml-events"
		width="8.26772in" height="5.82677in" viewBox="0 0 595.276 419.528" xml:space="preserve" color-interpolation-filters="sRGB"
		class="st14">
	<style type="text/css">
	<![CDATA[
		.st1 {fill:none;stroke:none;stroke-linecap:round;stroke-linejoin:round;stroke-width:0.75}
		.st2 {stroke:#000000;stroke-dasharray:2.25,2.25;stroke-linecap:round;stroke-linejoin:round;stroke-width:0.75}
		.st3 {fill:none;stroke:#000000;stroke-linecap:round;stroke-linejoin:round;stroke-width:0.75}
		.st4 {stroke:#000000;stroke-linecap:round;stroke-linejoin:round;stroke-width:0.75}
		.st5 {fill:#000000;font-family:Calibri;font-size:1.5em}
		.st6 {fill:#cdcdcd;stroke:#000000;stroke-linecap:round;stroke-linejoin:round;stroke-width:0.75}
		.st7 {fill:#000000;font-family:Calibri;font-size:0.833336em}
		.st8 {fill:#ffffff}
		.st9 {fill:#000000;font-family:Calibri;font-size:0.833336em;font-weight:bold}
		.st10 {font-size:1em;text-decoration:underline}
		.st11 {font-size:1em;font-weight:normal}
		.st12 {marker-end:url(#mrkr29-110);marker-start:url(#mrkr30-108);stroke:#000000;stroke-dasharray:3.6,3.6;stroke-linecap:round;stroke-linejoin:round;stroke-width:1.2}
		.st13 {fill:#000000;fill-opacity:1;stroke:#000000;stroke-opacity:1;stroke-width:0.23255813953489}
		.st14 {fill:none;fill-rule:evenodd;font-size:12px;overflow:visible;stroke-linecap:square;stroke-miterlimit:3}
	]]>
	</style>

	<defs id="Markers">
		<g id="lend30">
			<path
					d="M 2.25 0.75 C 1.83579 0.75 1.5 0.414214 1.5 0 1.5 -0.414214 1.83579 -0.75 2.25 -0.75 2.66421 -0.75 3 -0.414214 3 0 3 0.414214 2.66421 0.75 2.25 0.75 Z M 0.75 -0.75 L 0.75 0.75 M 1.5 0 L 0 0 "
					style="stroke-linecap:round;stroke-linejoin:round;fill:none"/>
		</g>
		<marker id="mrkr30-108" class="st13" refX="12.6" orient="auto" markerUnits="strokeWidth" overflow="visible">
			<use xlink:href="#lend30" transform="scale(4.2999999999999) "/>
		</marker>
		<g id="lend29">
			<path
					d="M 2.25 0.75 C 1.83579 0.75 1.5 0.414214 1.5 0 1.5 -0.414214 1.83579 -0.75 2.25 -0.75 2.66421 -0.75 3 -0.414214 3 0 3 0.414214 2.66421 0.75 2.25 0.75 Z M 0 -0.75 L 1.5 0 L 0 0.75 M 1.5 0 L 0 0 "
					style="stroke-linecap:round;stroke-linejoin:round;fill:none"/>
		</g>
		<marker id="mrkr29-110" class="st13" refX="-12.9" orient="auto" markerUnits="strokeWidth" overflow="visible">
			<use xlink:href="#lend29" transform="scale(-4.2999999999999,-4.2999999999999) "/>
		</marker>
	</defs>
	<g>
		<title>FondoDeVisio-1</title>
		<g id="group1-1" transform="translate(18,-18)">
			<title>Registro</title>
			<g id="shape2-2" transform="translate(386.376,5.68434E-14)">
				<title>Hoja.2</title>
				<rect x="0" y="394.879" width="165.713" height="24.6484" class="st1"/>
			</g>
			<g id="shape3-4" transform="translate(7.21466,-373.691)">
				<title>Hoja.3</title>
				<path d="M0 419.53 L544.85 419.53" class="st2"/>
			</g>
			<g id="group5-7" transform="translate(-2.7066,-363.77)">
				<title>Hoja.5</title>
				<g id="shape6-8" transform="translate(2.8345,-2.8345)">
					<title>Hoja.6</title>
					<ellipse cx="7.08676" cy="412.441" rx="7.08676" ry="7.08676" class="st3"/>
				</g>
				<g id="shape7-10" transform="translate(0,-9.92126)">
					<title>Hoja.7</title>
					<path d="M0 419.53 L19.84 419.53" class="st4"/>
				</g>
				<g id="shape8-13" transform="translate(429.449,399.685) rotate(90)">
					<title>Hoja.8</title>
					<path d="M0 419.53 L19.84 419.53" class="st4"/>
				</g>
			</g>
			<g id="group9-16" transform="translate(542.14,-363.77)">
				<title>Hoja.9</title>
				<g id="shape10-17" transform="translate(2.8345,-2.8345)">
					<title>Hoja.10</title>
					<ellipse cx="7.08676" cy="412.441" rx="7.08676" ry="7.08676" class="st3"/>
				</g>
				<g id="shape11-19" transform="translate(0,-9.92126)">
					<title>Hoja.11</title>
					<path d="M0 419.53 L19.84 419.53" class="st4"/>
				</g>
				<g id="shape12-22" transform="translate(429.449,399.685) rotate(90)">
					<title>Hoja.12</title>
					<path d="M0 419.53 L19.84 419.53" class="st4"/>
				</g>
			</g>
			<g id="shape13-25" transform="translate(7.18669,-345.548)">
				<title>Hoja.13</title>
				<path d="M0 391.38 L0 419.53 L544.9 419.53 L544.9 391.38" class="st2"/>
			</g>
			<g id="shape14-28" transform="translate(27.9638,-343.786)">
				<title>Hoja.14</title>
				<desc>Esquema de diseño relacional del archivo de resultados</desc>
				<rect x="0" y="390.042" width="503.348" height="29.4857" class="st1"/>
				<text x="49.31" y="410.18" class="st5">Esquema de diseño relacional del archivo de resultados</text>			</g>
		</g>
	</g>
	<g>
		<title>Página-1</title>
		<g id="group1-31" transform="translate(146.688,-241.559)">
			<title>Entidad</title>
			<g id="shape2-32" transform="translate(0,-56.0037)">
				<title>Hoja.2</title>
				<desc>TESTS</desc>
				<rect x="0" y="399.524" width="95.5828" height="20.0036" class="st6"/>
				<text x="35.88" y="412.53" class="st7">TESTS</text>			</g>
			<g id="shape3-35">
				<title>Hoja.3</title>
				<desc>PK ID NAME OBSERVATIONS</desc>
				<path d="M0 419.53 L95.58 419.53 L95.58 363.52 L0 363.52 L0 419.53 Z" class="st8"/>
				<path d="M0 419.53 L95.58 419.53 L95.58 363.52 L0 363.52 L0 419.53" class="st4"/>
				<path d="M21.83 419.53 L21.83 363.52" class="st4"/>
				<path d="M0 384.53 L95.58 384.53" class="st4"/>
				<text x="4" y="376.52" class="st9">PK <tspan dx="1.104em" class="st10">ID  </tspan><tspan x="4" dy="2.4em"
							class="st11"> </tspan><tspan dx="1.957em" class="st11">NAME </tspan><tspan x="4" dy="1.2em"
							class="st11"> </tspan><tspan dx="1.957em" class="st11">OBSERVATIONS</tspan></text>			</g>
		</g>
		<g id="group4-46" transform="translate(327.041,-90.0748)">
			<title>Entidad.4</title>
			<g id="shape5-47" transform="translate(0,-212.004)">
				<title>Hoja.5</title>
				<desc>RESULTS</desc>
				<rect x="0" y="399.524" width="145.211" height="20.0036" class="st6"/>
				<text x="55.11" y="412.53" class="st7">RESULTS</text>			</g>
			<g id="shape6-50">
				<title>Hoja.6</title>
				<desc>PK ID USER_PATTERN DEPARTURE_STATION ARRIVAL_STATION ARRIVAL_...</desc>
				<path d="M0 419.53 L145.21 419.53 L145.21 207.52 L0 207.52 L0 419.53 Z" class="st8"/>
				<path d="M0 419.53 L145.21 419.53 L145.21 207.52 L0 207.52 L0 419.53" class="st4"/>
				<path d="M21.83 419.53 L21.83 207.52" class="st4"/>
				<path d="M0 226.23 L145.21 226.23" class="st4"/>
				<text x="4" y="220.52" class="st9">PK <tspan dx="1.104em" class="st10">ID  </tspan><tspan x="4" dy="2.4em"
							class="st11"> </tspan><tspan dx="1.957em" class="st11">USER_PATTERN </tspan><tspan x="4" dy="1.2em"
							class="st11"> </tspan><tspan dx="1.957em" class="st11">DEPARTURE_STATION </tspan><tspan x="4"
							dy="1.2em" class="st11"> </tspan><tspan dx="1.957em" class="st11">ARRIVAL_STATION </tspan><tspan x="4"
							dy="1.2em" class="st11"> </tspan><tspan dx="1.957em" class="st11">ARRIVAL_DAY </tspan><tspan x="4"
							dy="1.2em" class="st11"> </tspan><tspan dx="1.957em" class="st11">ARRIVAL_TIME </tspan><tspan x="4"
							dy="1.2em" class="st11"> </tspan><tspan dx="1.957em" class="st11">PURCHASE_DAY </tspan><tspan x="4"
							dy="1.2em" class="st11"> </tspan><tspan dx="1.957em" class="st11">SERVICE </tspan><tspan x="4"
							dy="1.2em" class="st11"> </tspan><tspan dx="1.957em" class="st11">SERVICE_DEPARTURE_TIME </tspan><tspan
							x="4" dy="1.2em" class="st11"> </tspan><tspan dx="1.957em" class="st11">SERVICE_ARRIVAL_TIME </tspan><tspan
							x="4" dy="1.2em" class="st11"> </tspan><tspan dx="1.957em" class="st11">SEAT </tspan><tspan x="4"
							dy="1.2em" class="st11"> </tspan><tspan dx="1.957em" class="st11">PRICE </tspan><tspan x="4" dy="1.2em"
							class="st11"> </tspan><tspan dx="1.957em" class="st11">UTILITY </tspan><tspan x="4" dy="1.2em"
							class="st11"> </tspan><tspan dx="1.957em" class="st11">BEST_SERVICE </tspan><tspan x="4" dy="1.2em"
							class="st11"> </tspan><tspan dx="1.957em" class="st11">BEST_SEAT </tspan><tspan x="4" dy="1.2em"
							class="st11"> </tspan><tspan dx="1.957em" class="st11">BEST_UTILITY</tspan></text>			</g>
		</g>
		<g id="group7-87" transform="translate(147.362,-103.484)">
			<title>Entidad.7</title>
			<g id="shape8-88" transform="translate(0,-56.0037)">
				<title>Hoja.8</title>
				<desc>AUX_RESULTS</desc>
				<rect x="0" y="399.524" width="85.2457" height="20.0036" class="st6"/>
				<text x="13.94" y="412.53" class="st7">AUX_RESULTS</text>			</g>
			<g id="shape9-91">
				<title>Hoja.9</title>
				<desc>PK ID FK1 RESULTS_ID FK2 TEST_ID</desc>
				<path d="M0 419.53 L85.25 419.53 L85.25 363.52 L0 363.52 L0 419.53 Z" class="st8"/>
				<path d="M0 419.53 L85.25 419.53 L85.25 363.52 L0 363.52 L0 419.53" class="st4"/>
				<path d="M26.33 419.53 L26.33 363.52" class="st4"/>
				<path d="M0 384.53 L85.25 384.53" class="st4"/>
				<text x="4" y="376.52" class="st9">PK <tspan dx="1.554em" class="st10">ID  </tspan><tspan x="4" dy="2.4em"
							class="st11">FK1 </tspan><tspan dx="1.148em" class="st11">RESULTS_ID </tspan><tspan x="4" dy="1.2em"
							class="st11">FK2 </tspan><tspan dx="1.148em" class="st11">TEST_ID</tspan></text>			</g>
		</g>
		<g id="shape10-102" transform="translate(327.041,-134.401)">
			<title>Relación</title>
			<path d="M-15.12 412.44 L-15.48 412.44 L-78.95 412.44" class="st12"/>
		</g>
		<g id="shape11-111" transform="translate(182.899,-241.559)">
			<title>Relación.11</title>
			<path d="M7.09 434.65 L7.09 435.01 L7.09 466.12" class="st12"/>
		</g>
	</g>
</svg>
