<svg xmlns="http://www.w3.org/2000/svg" viewBox="0 0 64 64" role="img" aria-label="Portfolio favicon">
  <rect width="64" height="64" rx="16" fill="#07111f"/>

  <g fill="none" stroke="#7ea6ff" stroke-linecap="round" stroke-linejoin="round">
    <!-- Chip outline -->
    <rect x="14" y="14" width="36" height="36" rx="8" stroke-width="5"/>

    <!-- External pins -->
    <path d="M14 22h-6"/>
    <path d="M14 32h-8"/>
    <path d="M14 42h-6"/>
    <path d="M50 22h6"/>
    <path d="M50 32h8"/>
    <path d="M50 42h6"/>
    <path d="M22 14v-6"/>
    <path d="M32 14v-8"/>
    <path d="M42 14v-6"/>
    <path d="M22 50v6"/>
    <path d="M32 50v8"/>
    <path d="M42 50v6"/>

    <!-- Internal circuit traces -->
    <path d="M21 24h14v10h8"/>
    <path d="M21 40h9v-6h9"/>
  </g>

  <!-- Circuit nodes -->
  <circle cx="21" cy="24" r="2.2" fill="#7ea6ff"/>
  <circle cx="21" cy="40" r="2.2" fill="#7ea6ff"/>
  <circle cx="44" cy="34" r="2.2" fill="#7ea6ff"/>
</svg>
